PathFileType  4	(X/Y/Z) C:\Users\antoi\Documents\MyRepositories\mobilecap\ResultsAnalysis
DataRate	CameraRate	NumFrames	NumMarkers	Units	OrigDataRate	OrigDataStartFrame	OrigNumFrames
100.0	100.0	4	51	mm	100.0	99	158
Frame#	Time	r_knee			r_shank_antsup			r_ankle			r_calc			r_5meta			r_toe			L_knee			L_shank_antsup			L_ankle			L_calc			L_5meta			L_toe			r_sh2			r_sh3			r_sh4			L_sh2			L_sh3			r_thigh1			r_thigh2			r_thigh3			r_thigh4			r_thigh5			L_thigh1			L_thigh2			L_thigh3			L_thigh4			r.ASIS			r.PSIS			L.ASIS			L.PSIS			C7			R_Shoulder			L_Shoulder			R_Sternum			L_Sternum			R_humerus			R_elbow_med			R_elbow_lat			R_forearm			R_wrist_radius			R_wrist_ulna			L_humerus			L_elbow_med			L_elbow_lat			L_forearm			L_wrist_radius			L_wrist_ulna			R_HJC			L_HJC			R_HJC_reg			L_HJC_reg			
		X1	Y1	Z1	X2	Y2	Z2	X3	Y3	Z3	X4	Y4	Z4	X5	Y5	Z5	X6	Y6	Z6	X7	Y7	Z7	X8	Y8	Z8	X9	Y9	Z9	X10	Y10	Z10	X11	Y11	Z11	X12	Y12	Z12	X13	Y13	Z13	X14	Y14	Z14	X15	Y15	Z15	X16	Y16	Z16	X17	Y17	Z17	X18	Y18	Z18	X19	Y19	Z19	X20	Y20	Z20	X21	Y21	Z21	X22	Y22	Z22	X23	Y23	Z23	X24	Y24	Z24	X25	Y25	Z25	X26	Y26	Z26	X27	Y27	Z27	X28	Y28	Z28	X29	Y29	Z29	X30	Y30	Z30	X31	Y31	Z31	X32	Y32	Z32	X33	Y33	Z33	X34	Y34	Z34	X35	Y35	Z35	X36	Y36	Z36	X37	Y37	Z37	X38	Y38	Z38	X39	Y39	Z39	X40	Y40	Z40	X41	Y41	Z41	X42	Y42	Z42	X43	Y43	Z43	X44	Y44	Z44	X45	Y45	Z45	X46	Y46	Z46	X47	Y47	Z47	X48	Y48	Z48	X49	Y49	Z49	X50	Y50	Z50	X51	Y51	Z51	

99	0.98000000	1105.54564	636.81306	-53.20973	1065.85546	490.36523	-57.56021	809.76009	228.55335	-67.00461	751.46735	236.60443	-133.97109	887.09703	103.46262	-32.11052	938.64826	104.31920	-80.03577	937.88149	600.11629	-338.89613	973.62118	400.04759	-295.14509	871.06390	106.48347	-285.58408	809.81736	73.91346	-221.91779	1010.12282	37.38168	-319.81285	1051.30985	65.30209	-259.71241	999.00841	397.16218	-65.56820	1008.75246	524.12932	-21.34808	941.42324	434.73816	-19.37417	914.39405	405.54636	-359.18374	896.10104	292.27088	-335.99044	1046.77185	917.88592	-22.77147	1102.48151	822.03176	-27.50622	1057.89014	772.79256	-18.60954	946.73216	867.16678	-39.35858	1004.98729	763.14207	-36.81015	1000.24430	895.60470	-367.80184	996.58791	761.58822	-351.76102	892.75347	898.90706	-383.39449	892.32333	761.41348	-379.70425	995.92878	1184.15684	-71.91920	808.90906	1202.88679	-158.16771	991.10249	1172.88785	-350.66662	807.60910	1205.20765	-251.55154	854.45263	1694.89997	-229.48631	916.61494	1654.02088	-51.03709	926.80595	1660.09525	-403.64215	995.89320	1611.00354	-193.01173	1000.39302	1610.72682	-250.60888	870.19435	1387.13104	23.27090	771.38052	1283.96355	-16.50943	780.93786	1306.00569	51.83649	868.41007	1108.51095	82.77560	899.47806	1017.96006	81.20469	868.89861	1016.58927	105.20265	928.96927	1364.57925	-457.23603	837.59225	1288.76950	-411.39558	860.08743	1285.13323	-485.21136	962.50256	1104.26347	-501.04601	1000.70306	1033.23672	-489.22388	976.81309	1029.98222	-514.81923	923.07507	1084.00173	-107.19820	912.63063	1081.03040	-304.37561	931.90723	1086.69966	-113.30311	929.34158	1091.27557	-297.37765	
100	0.99000000	1119.14101	639.25735	-53.71878	1084.88317	491.31831	-57.44181	840.24843	218.32117	-65.88574	781.28186	223.03466	-132.64218	923.84657	97.71468	-30.28250	975.37134	101.10074	-78.46991	940.61910	599.92807	-339.07277	975.38190	399.78087	-295.22994	871.07946	106.70863	-285.59953	809.93380	74.10319	-221.88703	1010.14227	37.35037	-319.86195	1051.33368	65.08684	-259.68228	1022.21775	395.49726	-65.12279	1026.29462	522.71271	-21.36980	962.72201	430.35159	-18.92899	916.00001	405.42593	-359.26892	897.15744	292.23855	-336.00427	1057.81928	919.52271	-23.04571	1114.23323	824.10253	-27.94223	1070.13592	774.66134	-19.17306	958.50166	867.76020	-39.43070	1017.26107	764.41046	-37.24730	1006.86490	894.76813	-367.70137	1001.44436	760.80013	-351.82131	899.46933	899.28267	-383.68504	897.28441	761.86194	-380.06667	1005.30951	1184.33937	-72.39935	818.08975	1203.35375	-158.16357	1000.33453	1172.63045	-351.09689	816.93264	1205.60689	-251.61465	864.42681	1695.09395	-229.49439	926.14477	1653.83617	-51.12630	936.68143	1660.48028	-403.68828	1005.62037	1611.01977	-193.07587	1010.11834	1610.75996	-250.68201	879.13068	1387.05001	22.81599	780.39799	1283.93865	-17.39532	789.67556	1306.00545	51.07673	877.48291	1108.62376	82.13399	908.88603	1018.34496	80.77787	877.95144	1016.74668	104.49573	939.53334	1365.12444	-457.88431	848.08804	1288.97575	-412.71648	871.00185	1285.59726	-486.41439	974.79688	1105.40141	-501.70127	1013.48865	1034.72460	-489.66469	989.70401	1031.26470	-515.45109	932.22526	1084.28873	-107.31762	921.52973	1081.06641	-304.47772	940.87273	1086.85975	-113.78996	938.58908	1091.29886	-297.85129	
101	1.00000000	1132.10528	641.27832	-54.34613	1103.37403	492.01538	-57.62315	871.28305	207.89218	-64.82195	811.81778	209.24143	-131.42864	961.02667	92.15797	-28.62558	1012.37177	98.16863	-77.02231	943.45731	599.70221	-339.21121	977.13749	399.47169	-295.31219	871.10786	106.92668	-285.60471	809.96487	74.34309	-221.88317	1010.15899	37.31812	-319.90198	1051.35147	64.88837	-259.66430	1045.43096	393.74948	-64.77823	1043.53524	520.88905	-21.43828	984.01980	425.58076	-18.51994	917.63556	405.30456	-359.33732	898.20080	292.19444	-335.99852	1068.43371	920.79640	-23.36705	1125.43442	825.73522	-28.45903	1081.70732	776.05002	-19.75564	969.75425	868.21044	-39.74100	1028.82714	765.33157	-37.81769	1013.55585	893.86582	-367.50489	1006.39431	759.97773	-351.77851	906.25454	899.53845	-383.95015	902.39204	762.21996	-380.37413	1014.71926	1184.34782	-72.82124	827.28009	1203.72018	-158.11795	1009.57576	1172.24660	-351.47880	826.29227	1205.92734	-251.65292	874.42473	1695.18759	-229.48548	935.72635	1653.54983	-51.17508	946.50044	1660.75591	-403.72972	1015.38246	1610.92632	-193.13066	1019.90774	1610.71451	-250.72517	888.20897	1386.82923	22.39914	789.55918	1283.77921	-18.21038	798.59568	1305.83226	50.36496	886.73197	1108.56390	81.49847	918.44297	1018.51839	80.30771	887.18398	1016.73407	103.79242	950.07240	1365.55166	-458.50214	858.52762	1289.07317	-413.95180	881.88563	1285.93289	-487.55835	987.04378	1106.42060	-502.33222	1026.20117	1036.08777	-490.09526	1002.54768	1032.43753	-516.06596	941.35690	1084.43253	-107.41043	930.41795	1080.99558	-304.55365	949.80447	1086.86167	-114.25911	947.85516	1091.20604	-298.31251	
102	1.01000000	1144.43267	642.84185	-55.09280	1121.38048	492.51853	-58.07467	902.79443	197.44529	-63.84112	843.02666	195.39365	-130.36970	998.54264	87.00206	-27.11888	1049.53864	95.68288	-75.65846	946.41560	599.43355	-339.32218	978.91259	399.11156	-295.39820	871.16888	107.11508	-285.59638	809.93374	74.60911	-221.90716	1010.17583	37.27136	-319.93727	1051.36372	64.69297	-259.67020	1068.49681	391.92769	-64.57712	1060.46440	518.68625	-21.57960	1005.31462	420.53276	-18.18115	919.34560	405.17993	-359.41353	899.28918	292.15261	-336.00423	1078.63081	921.68675	-23.71404	1136.10141	826.91053	-29.06307	1092.62914	776.97285	-20.35491	980.45042	868.51154	-40.25809	1039.69936	765.89499	-38.47428	1020.31201	892.89901	-367.22561	1011.46235	759.13009	-351.64949	913.08821	899.67081	-384.18245	907.64549	762.48750	-380.62789	1024.15054	1184.20001	-73.17018	836.49660	1203.96599	-158.05251	1018.83407	1171.73918	-351.80325	835.68849	1206.15411	-251.68284	884.44180	1695.18997	-229.45406	945.37126	1653.17978	-51.18709	956.29916	1660.93020	-403.75075	1025.18545	1610.72479	-193.16591	1029.74010	1610.57284	-250.74365	897.43569	1386.48096	22.01948	798.86282	1283.49932	-18.95004	807.70054	1305.49593	49.70044	896.16710	1108.34879	80.87138	928.15942	1018.48289	79.78848	896.63329	1016.56028	103.09307	960.58323	1365.86746	-459.07928	868.93223	1289.06486	-415.09113	892.72805	1286.14491	-488.63054	999.22785	1107.32739	-502.93436	1038.83297	1037.33083	-490.51400	1015.32000	1033.50721	-516.65736	950.48077	1084.43755	-107.47310	939.32348	1080.81149	-304.60081	958.74197	1086.69448	-114.69202	957.14770	1090.99669	-298.74595	
